<?xml version="1.0" encoding="UTF-8"?>
<svg id="Layer_1" data-name="Layer 1" xmlns="http://www.w3.org/2000/svg" viewBox="0 0 209.35 209.05">
  <defs>
    <style>
      .cls-1 {
        fill: #000;
        stroke-width: 0px;
      }
    </style>
  </defs>
  <path class="cls-1" d="M63.16,0c3.56,1.25,6.88,2.4,10.19,3.57,5.64,1.99,11.28,3.99,16.92,6,5.41,1.92,10.82,3.88,16.24,5.77,7.07,2.47,14.16,4.86,21.22,7.33,5.96,2.09,11.9,4.23,17.84,6.4.35.13.66.63.81,1.02.14.39.06.86.06,1.3,0,28.2,0,56.4,0,84.6,0,2.29,0,2.3-2.32,2.3-4.07,0-8.14,0-12.21,0-1.9,0-1.91,0-1.91-1.95,0-16.86,0-33.72,0-50.58,0-7.46-.03-14.92.03-22.38.01-1.43-.31-2.21-1.83-2.74-9.13-3.13-18.21-6.38-27.3-9.61-6.54-2.32-13.07-4.66-19.6-7.01-1.42-.51-2.01-.09-1.9,1.42.04.58.08,1.16.08,1.74,0,21.08,0,42.15,0,63.23q0,1.91-1.92,1.92c-4.31,0-8.62-.03-12.94.02-1.16.01-1.61-.29-1.61-1.54.03-29.75.02-59.5.03-89.25,0-.42.07-.85.12-1.53Z"/>
  <path class="cls-1" d="M56.49,129.72c5.86,0,11.73.01,17.59-.02.51,0,1.03-.29,1.54-.45-.27-.43-.47-.93-.82-1.28-3.71-3.75-7.41-7.5-11.18-11.19-.95-.93-.82-1.49.06-2.35,3.16-3.07,6.26-6.21,9.38-9.32,1.3-1.3,1.38-1.29,2.65-.02,9.47,9.5,18.94,18.99,28.4,28.49q2.28,2.29.01,4.54c-9.47,9.43-18.94,18.86-28.37,28.32-.98.98-1.6,1.05-2.59.03-3.08-3.15-6.23-6.24-9.4-9.29-1.01-.97-1.13-1.66-.02-2.7,3.14-2.95,6.17-6,9.22-9.04.33-.33.5-.84.74-1.27-.48-.14-.95-.39-1.43-.39-11.05-.05-22.1.08-33.14-.15-7.36-.15-14.11-2.6-20.28-6.64-6.86-4.49-11.88-10.56-15.27-17.97-1.92-4.19-3.01-8.61-3.42-13.24-.38-4.29-.11-8.5.74-12.69,1.27-6.27,4.05-11.85,7.92-16.89,3.96-5.15,8.91-9.14,14.79-11.86,5.29-2.45,10.8-4.08,16.75-3.91,3.09.08,6.2-.04,9.29-.15,1.41-.05,1.63.82,1.66,1.85.05,2.18.03,4.36.03,6.54,0,1.41-.07,2.81,0,4.21.06,1.17-.42,1.49-1.53,1.49-3.78.02-7.6-.21-11.32.27-10.43,1.35-17.76,7.01-22.08,16.62-2.65,5.92-2.96,12.03-1.21,18.15,2.41,8.4,7.74,14.38,15.78,18,3.85,1.73,7.83,2.35,11.98,2.32,4.51-.03,9.01,0,13.52,0Z"/>
  <path class="cls-1" d="M145.28,143.77c-8.58,0-17.15-.03-25.73.03-1.38,0-1.89-.38-1.85-1.81.09-3.49.07-6.98.02-10.46-.02-1.37.43-1.83,1.85-1.82,15.89.05,31.78-.11,47.67.08,11.08.13,21.87-7.56,25.75-17.11,2.47-6.08,2.94-12.21,1.13-18.4-1.9-6.52-5.92-11.66-11.57-15.47-5.64-3.8-11.97-4.7-18.58-4.44-1.6.06-3.2.03-4.79.04-.95,0-1.38-.41-1.37-1.41.04-3.68.04-7.36,0-11.05,0-1.27.59-1.72,1.79-1.69,4.4.1,8.83-.12,13.2.33,6.73.69,12.91,3.18,18.51,6.99,7.13,4.85,12.16,11.44,15.34,19.37,2.56,6.38,3.13,13.11,2.41,19.96-.98,9.29-4.88,17.23-11.24,23.94-5.89,6.21-13,10.5-21.53,12-3.08.54-6.23.84-9.36.9-7.22.13-14.44.04-21.66.04h0Z"/>
  <path class="cls-1" d="M63.02,209.05c0-1,0-1.81,0-2.61,0-4.51.03-9.01-.02-13.52-.01-1.22.42-1.79,1.59-2.19,5.99-2.04,11.95-4.17,17.93-6.26,7.79-2.72,15.6-5.4,23.39-8.14,5.64-1.98,11.26-4.03,16.9-6.03,1.73-.61,3.45-1.28,5.21-1.76,1.51-.42,2.08-1.19,2.02-2.79-.12-3,0-6.01-.05-9.01-.02-1.06.2-1.56,1.43-1.54,4.6.07,9.21.04,13.81,0,.89,0,1.21.33,1.21,1.18-.01,7.41,0,14.83-.05,22.24,0,.45-.51,1.16-.94,1.32-6.43,2.36-12.88,4.64-19.32,6.94-6.63,2.37-13.26,4.75-19.91,7.08-5.83,2.04-11.7,4-17.53,6.04-4.32,1.51-8.6,3.13-12.92,4.66-4.13,1.46-8.28,2.86-12.72,4.39Z"/>
</svg>