<svg width="167" height="51" viewBox="0 0 167 51" fill="none" xmlns="http://www.w3.org/2000/svg">
<g filter="url(#filter0_d_304_30)">
<path opacity="0.4" d="M44 32.6667V16.3333C44 9.56784 38.4931 4.08333 31.7 4.08333H15.3L3 16.3333H25.55C28.9466 16.3333 31.7 19.0756 31.7 22.4583L31.7 44.9167L44 32.6667Z" fill="url(#paint0_linear_304_30)"/>
<path d="M3 16.3333L3 32.6667C3 39.4321 8.5069 44.9167 15.3 44.9167H31.7L44 32.6667L23.5 32.6667C18.9713 32.6667 15.3 29.0103 15.3 24.5L15.3 4.08333L3 16.3333Z" fill="url(#paint1_linear_304_30)"/>
</g>
<path d="M156.904 37.3503C155.316 37.3503 153.914 36.9883 152.7 36.2644C151.486 35.517 150.54 34.4194 149.863 32.9715C149.185 31.5236 148.847 29.7837 148.847 27.7519C148.847 25.6968 149.185 23.9453 149.863 22.4973C150.54 21.0494 151.486 19.9635 152.7 19.2395C153.914 18.4922 155.316 18.1185 156.904 18.1185C158.141 18.1185 159.192 18.3521 160.056 18.8191C160.921 19.2862 161.598 19.835 162.088 20.4656H162.263V12.4786H166.817V37H162.929L162.439 34.8631H162.263C161.633 35.6105 160.874 36.2176 159.986 36.6847C159.122 37.1284 158.095 37.3503 156.904 37.3503ZM157.85 33.2517C158.69 33.2517 159.438 33.0532 160.091 32.6562C160.769 32.2592 161.294 31.652 161.668 30.8346C162.065 29.9939 162.263 28.9663 162.263 27.7519C162.263 26.5375 162.065 25.51 161.668 24.6692C161.294 23.8285 160.769 23.2096 160.091 22.8126C159.438 22.4156 158.69 22.2171 157.85 22.2171C157.009 22.2171 156.25 22.4156 155.573 22.8126C154.919 23.2096 154.393 23.8285 153.996 24.6692C153.623 25.51 153.436 26.5375 153.436 27.7519C153.436 29.5735 153.844 30.9514 154.662 31.8855C155.502 32.7963 156.565 33.2517 157.85 33.2517Z" fill="#2F01B0" fill-opacity="0.8"/>
<path d="M137.56 37V18.4688H141.484L141.974 20.6407H142.149C142.64 19.87 143.259 19.3212 144.006 18.9943C144.777 18.644 145.641 18.4688 146.598 18.4688H148.84V22.8827H146.913C145.933 22.8827 145.08 23.0695 144.356 23.4432C143.656 23.8168 143.107 24.3423 142.71 25.0195C142.336 25.6968 142.149 26.5025 142.149 27.4367V37H137.56Z" fill="#2F01B0" fill-opacity="0.8"/>
<path d="M124.431 37.3503C123.123 37.3503 121.979 37.1051 120.998 36.6147C120.017 36.1242 119.258 35.447 118.721 34.5829C118.207 33.6954 117.95 32.7029 117.95 31.6053C117.95 30.4843 118.219 29.4918 118.756 28.6277C119.316 27.7402 120.134 27.0513 121.208 26.5609C122.282 26.0705 123.578 25.8252 125.096 25.8252H130.771V29.1882H125.236C124.349 29.1882 123.672 29.3867 123.205 29.7837C122.761 30.1807 122.539 30.6828 122.539 31.29C122.539 31.9673 122.784 32.5161 123.275 32.9365C123.765 33.3568 124.501 33.567 125.482 33.567C126.276 33.567 126.976 33.4152 127.583 33.1116C128.214 32.7847 128.704 32.3409 129.055 31.7804C129.405 31.1966 129.58 30.5427 129.58 29.8187V24.9144C129.58 24.0037 129.277 23.303 128.669 22.8126C128.086 22.3222 127.28 22.077 126.252 22.077C125.505 22.077 124.863 22.2404 124.326 22.5674C123.788 22.8944 123.426 23.3147 123.24 23.8285H118.651C119.048 22.1704 119.9 20.8042 121.208 19.7299C122.516 18.6557 124.244 18.1185 126.392 18.1185C128.004 18.1185 129.382 18.3871 130.526 18.9242C131.694 19.4614 132.581 20.2554 133.188 21.3063C133.819 22.3572 134.134 23.6066 134.134 25.0546V37H130.246L129.755 34.8631H129.58C129.136 35.517 128.483 36.1009 127.618 36.6147C126.754 37.1051 125.692 37.3503 124.431 37.3503Z" fill="#2F01B0" fill-opacity="0.8"/>
<path d="M101.096 37V12.4786H105.685V26.7711L112.866 18.4688H118.191L110.414 27.4717L118.716 37H113.251L105.685 28.3825V37H101.096Z" fill="#2F01B0" fill-opacity="0.8"/>
<path d="M81.1296 37V18.4688H85.053L85.5434 20.6407H85.7186C86.3258 19.8233 87.0614 19.2045 87.9255 18.7841C88.7896 18.3404 89.7004 18.1185 90.6579 18.1185C92.0124 18.1185 93.2035 18.4221 94.231 19.0293C95.2586 19.6365 96.0526 20.5123 96.6131 21.6566C97.1969 22.7776 97.4889 24.1087 97.4889 25.6501V37H92.9349V26.2456C92.9349 25.3815 92.7948 24.6576 92.5145 24.0737C92.2343 23.4665 91.8256 23.0111 91.2884 22.7075C90.7747 22.3806 90.1558 22.2171 89.4318 22.2171C88.6845 22.2171 88.0306 22.3922 87.4701 22.7426C86.933 23.0929 86.5009 23.5716 86.174 24.1788C85.8704 24.786 85.7186 25.4749 85.7186 26.2456V37H81.1296Z" fill="#2F01B0" fill-opacity="0.8"/>
<path d="M72.9699 37V18.4688H77.5589V37H72.9699ZM75.282 16.0517C74.5346 16.0517 73.9041 15.7948 73.3903 15.281C72.8765 14.7673 72.6196 14.1367 72.6196 13.3894C72.6196 12.6421 72.8765 12.0115 73.3903 11.4977C73.9041 10.984 74.5346 10.7271 75.282 10.7271C76.0293 10.7271 76.6598 10.984 77.1736 11.4977C77.6874 12.0115 77.9443 12.6421 77.9443 13.3894C77.9443 14.1367 77.6874 14.7673 77.1736 15.281C76.6598 15.7948 76.0293 16.0517 75.282 16.0517Z" fill="#2F01B0" fill-opacity="0.8"/>
<path d="M54.5222 37V12.4786H59.4615V32.5861H70.8465V37H54.5222Z" fill="#2F01B0" fill-opacity="0.8"/>
<defs>
<filter id="filter0_d_304_30" x="0" y="-0.75" width="47" height="55" filterUnits="userSpaceOnUse" color-interpolation-filters="sRGB">
<feFlood flood-opacity="0" result="BackgroundImageFix"/>
<feColorMatrix in="SourceAlpha" type="matrix" values="0 0 0 0 0 0 0 0 0 0 0 0 0 0 0 0 0 0 127 0" result="hardAlpha"/>
<feMorphology radius="1.5" operator="erode" in="SourceAlpha" result="effect1_dropShadow_304_30"/>
<feOffset dy="2.25"/>
<feGaussianBlur stdDeviation="2.25"/>
<feComposite in2="hardAlpha" operator="out"/>
<feColorMatrix type="matrix" values="0 0 0 0 0.141176 0 0 0 0 0.141176 0 0 0 0 0.141176 0 0 0 0.1 0"/>
<feBlend mode="normal" in2="BackgroundImageFix" result="effect1_dropShadow_304_30"/>
<feBlend mode="normal" in="SourceGraphic" in2="effect1_dropShadow_304_30" result="shape"/>
</filter>
<linearGradient id="paint0_linear_304_30" x1="23.5" y1="4.08333" x2="23.5" y2="44.9167" gradientUnits="userSpaceOnUse">
<stop stop-color="#2F01B0" stop-opacity="0.8"/>
<stop offset="1" stop-color="#2F01B0" stop-opacity="0.5"/>
</linearGradient>
<linearGradient id="paint1_linear_304_30" x1="23.5" y1="4.08333" x2="23.5" y2="44.9167" gradientUnits="userSpaceOnUse">
<stop stop-color="#2F01B0" stop-opacity="0.8"/>
<stop offset="1" stop-color="#2F01B0" stop-opacity="0.5"/>
</linearGradient>
</defs>
</svg>
